PathFileType        4      (X/Y/Z)      C:\Users\pc\Desktop\IMUTRC\Sujet_03\Sujet_03_velo_80.trc         
DataRate	CameraRate	NumFrames	NumMarkers	Units	OrigDataRate	OrigDataStartFrame	OrigNumFrames
60.0	60.0	4	64	mm	60.0	703	936
Frame#	Time	pHipOrigin			pRightASI			pLeftASI			pRightCSI			pLeftCSI			pRightIschialTub			pLeftIschialTub			pSacrum			pL5SpinalProcess			pL3SpinalProcess			pT12SpinalProcess			pIJ			pT4SpinalProcess			pT8SpinalProcess			pPX			pC7SpinalProcess			pTopOfHead			pRightAuricularis			pLeftAuricularis			pBackOfHead			pRightAcromion			pLeftAcromion			pRightArmLatEpicondyle			pRightArmMedEpicondyle			pLeftArmLatEpicondyle			pLeftArmMedEpicondyle			pRightUlnarStyloid			pRightRadialStyloid			pRightOlecranon			pLeftUlnarStyloid			pLeftRadialStyloid			pLeftOlecranon			pRightTopOfHand			pRightPinky			pRightBallHand			pLeftTopOfHand			pLeftPinky			pLeftBallHand			pRightGreaterTrochanter			pRightKneeLatEpicondyle			pRightKneeMedEpicondyle			pRightPatella			pLeftGreaterTrochanter			pLeftKneeLatEpicondyle			pLeftKneeMedEpicondyle			pLeftPatella			pRightTibialTub			pRightLatMalleolus			pRightMedMalleolus			pLeftTibialTub			pLeftLatMalleolus			pLeftMedMalleolus			pRightHeelFoot			pRightFirstMetatarsal			pRightFifthMetatarsal			pRightPivotFoot			pRightHeelCenter			pRightToe			pLeftHeelFoot			pLeftFirstMetatarsal			pLeftFifthMetatarsal			pLeftPivotFoot			pLeftHeelCenter			pLeftToe			
		X1	Y1	Z1	X2	Y2	Z2	X3	Y3	Z3	X4	Y4	Z4	X5	Y5	Z5	X6	Y6	Z6	X7	Y7	Z7	X8	Y8	Z8	X9	Y9	Z9	X10	Y10	Z10	X11	Y11	Z11	X12	Y12	Z12	X13	Y13	Z13	X14	Y14	Z14	X15	Y15	Z15	X16	Y16	Z16	X17	Y17	Z17	X18	Y18	Z18	X19	Y19	Z19	X20	Y20	Z20	X21	Y21	Z21	X22	Y22	Z22	X23	Y23	Z23	X24	Y24	Z24	X25	Y25	Z25	X26	Y26	Z26	X27	Y27	Z27	X28	Y28	Z28	X29	Y29	Z29	X30	Y30	Z30	X31	Y31	Z31	X32	Y32	Z32	X33	Y33	Z33	X34	Y34	Z34	X35	Y35	Z35	X36	Y36	Z36	X37	Y37	Z37	X38	Y38	Z38	X39	Y39	Z39	X40	Y40	Z40	X41	Y41	Z41	X42	Y42	Z42	X43	Y43	Z43	X44	Y44	Z44	X45	Y45	Z45	X46	Y46	Z46	X47	Y47	Z47	X48	Y48	Z48	X49	Y49	Z49	X50	Y50	Z50	X51	Y51	Z51	X52	Y52	Z52	X53	Y53	Z53	X54	Y54	Z54	X55	Y55	Z55	X56	Y56	Z56	X57	Y57	Z57	X58	Y58	Z58	X59	Y59	Z59	X60	Y60	Z60	X61	Y61	Z61	X62	Y62	Z62	X63	Y63	Z63	X64	Y64	Z64	
703	11.7	0.0	1249.98473	7.653948992887842E-14	95.13076000000001	1336.16269	130.9419800000001	83.52099999999999	1328.36508	-143.1871099999999	65.78867	1412.11712	106.04741000000008	56.200509999999994	1405.648	-120.25636999999992	-66.01971	1208.57079	60.70579000000008	-70.81379	1205.33623	-52.44609999999992	-61.11011	1286.72011	1.5595200000000826	-0.9241600000000002	1376.42143	-3.350079999999916	66.65507	1475.47987	-11.147689999999914	129.9023	1565.23895	-19.11856999999991	398.48642	1600.99241	-41.70273999999992	276.55501	1705.53806	-36.96641999999991	201.69801	1646.91163	-28.12912999999991	299.65902	1516.77829	-29.688649999999924	322.30095	1739.38543	-40.95185999999992	567.7233	1845.02852	-86.98659999999991	503.66743	1784.32273	1.4440000000000783	471.49509	1785.01585	-139.31717999999992	454.91797	1830.41523	-61.28338999999991	334.02623	1735.57327	170.50760000000008	313.81022	1690.17389	-254.77947999999992	431.87172	1451.7405	157.51159000000007	413.27299	1446.19554	100.09813000000005	410.15395	1415.06288	-232.77290999999994	396.00274	1411.36624	-173.91543999999993	512.21591	1207.24231	132.61702000000005	562.00506	1227.68936	133.65670000000006	395.4829	1444.92482	130.59542000000005	505.51575	1176.97606	-218.44841999999994	554.09193	1200.13783	-219.95017999999993	376.19105	1407.61184	-204.81704999999994	716.05105	1126.20499	196.73065	620.92028	1123.72131	165.82904000000002	566.79914	1177.03382	133.07910000000007	682.31919	1081.09441	-317.33358	593.31099	1088.37218	-272.33852	553.16777	1144.74596	-227.05465999999998	23.79713000000001	1223.2996	164.21175000000008	301.91166	921.1569	121.70038000000004	306.07038	927.74154	42.10706000000003	335.00815	956.79484	83.52100000000004	9.12607999999999	1236.69992	-170.5075999999999	315.31198	965.34332	-225.43737999999996	329.11663	955.58188	-147.23030999999997	349.91024	995.72509	-184.13895999999997	355.10864	885.23016	78.95796000000003	227.8633	482.93158	96.92132000000001	228.67194	485.24198	30.092970000000015	338.01167	902.90473	-182.63719999999998	5.833759999999994	655.34526	-100.32916999999996	25.067849999999996	659.79278	-36.446579999999955	167.9084	412.11779	38.81474000000002	333.79519	380.17649	1.7905600000000028	327.49935	358.3432	80.22868000000001	353.1448	363.65713	40.14322	207.12745	402.76066	39.33458000000001	433.95108	342.4592	40.663059999999994	-59.49283	622.88412	-17.328009999999956	75.66563	515.27719	-25.47216999999997	35.29137999999999	500.02855	-94.78419999999997	71.91123	491.9999	-64.92226999999997	-31.36369	595.96795	-27.724809999999962	129.20918	434.87524	-85.71587999999998	
704	11.717	0.0	1249.98473	7.653948992887842E-14	96.80580000000002	1335.70061	130.01782000000009	81.78819999999999	1328.76941	-143.9957499999999	67.17491	1411.7128	105.70085000000009	54.756499999999996	1405.99456	-120.48740999999991	-65.26883	1208.39751	61.39891000000008	-71.44915	1205.56727	-51.69521999999992	-61.05235	1286.72011	2.4259200000000822	-0.9241600000000002	1376.42143	-3.0612799999999156	66.53955	1475.53763	-11.205449999999914	129.6135	1565.29671	-19.52288999999991	398.13986	1601.45449	-43.37777999999992	276.03517	1705.82686	-38.063859999999906	201.29369	1647.08491	-28.88000999999991	299.42798	1517.06709	-31.017129999999927	321.72335	1739.73199	-42.222579999999915	566.91466	1845.83716	-88.37283999999991	502.91655	1785.01585	-0.05775999999992149	470.80197	1785.65121	-140.8189399999999	454.10933	1830.99283	-62.785149999999916	334.08399	1735.57327	169.41016000000008	312.88606	1690.40493	-255.9346799999999	431.92948	1451.68274	156.58743000000007	413.21523	1446.02226	99.23173000000006	409.34531	1415.4672	-233.75482999999994	395.36738	1411.77056	-174.89735999999994	511.81159	1207.01127	132.84806000000006	561.60074	1227.3428	133.94550000000007	395.4829	1444.86706	129.67126000000005	504.82263	1177.32262	-218.62169999999995	553.39881	1200.48439	-220.06569999999994	375.49793	1408.01616	-205.79896999999994	715.53121	1125.91619	197.30825	620.40044	1123.43251	166.34888000000004	566.39482	1176.68726	133.42566000000005	681.68383	1081.32545	-317.21806	592.61787	1088.66098	-272.33852	552.41689	1145.09252	-227.11241999999996	24.316970000000012	1222.31768	164.03847000000007	285.73885	905.90825	119.56325000000004	289.26221	911.9153	39.91218000000004	320.22159	939.64011	80.80628000000004	7.104479999999989	1237.39304	-170.62311999999991	325.70879	981.80493	-230.34697999999997	341.304	973.0254	-152.37094999999997	359.44064	1014.03502	-189.68392999999998	339.22463	869.69272	76.99412000000004	214.34746	466.70101	96.28596000000002	215.04058	468.83813	29.457610000000013	348.8128	920.11722	-187.66232999999997	16.63488999999999	673.30863	-103.33268999999996	36.04226	678.04495	-39.50785999999996	152.94855	397.04242	37.659540000000014	318.19998	362.15536	0.4043200000000027	311.49982	339.85999	78.72692	337.20303	345.00064	38.64146	191.99433	386.93442	38.12162000000001	417.54723	322.24319	38.98801999999999	-48.05634	640.67421	-19.522889999999958	87.15988	533.29832	-29.457609999999974	46.03473999999999	518.10744	-98.30755999999997	83.00116	510.13655	-68.90770999999997	-19.984970000000004	613.87356	-30.324009999999962	140.12582	453.01189	-90.45219999999999	
705	11.733	0.0	1249.98473	7.653948992887842E-14	98.59636000000002	1335.29629	128.92038000000008	79.93987999999999	1329.11597	-144.86214999999993	68.67667	1411.424	105.23877000000009	53.25473999999999	1406.28336	-120.77621999999991	-64.46019	1208.28199	62.14979000000008	-72.20003	1205.74055	-50.886579999999924	-60.99459	1286.77787	3.3500800000000823	-0.9241600000000002	1376.36367	-2.8302399999999155	66.48179	1475.53763	-11.436489999999912	129.38246	1565.35447	-20.04272999999991	397.73554	1601.91657	-45.226099999999924	275.51533	1706.0579	-39.21905999999991	200.88937	1647.25819	-29.80416999999991	299.2547	1517.35589	-32.40336999999993	321.08799	1740.07855	-43.66657999999992	566.10602	1846.58804	-89.99011999999992	502.10791	1785.65121	-1.6750399999999215	470.16661	1786.22881	-142.4939799999999	453.30069	1831.57043	-64.46018999999991	334.25727	1735.57327	168.0816800000001	311.84638	1690.63597	-257.2631599999999	431.92948	1451.56722	155.54775000000006	412.98419	1445.73346	98.30756000000005	408.47891	1415.81376	-234.85226999999995	394.55874	1412.23264	-175.99479999999994	511.23399	1206.60695	133.02134000000007	561.0809	1226.88072	134.11878000000004	395.36738	1444.69378	128.63158000000007	503.95623	1177.66918	-218.91049999999996	552.53241	1200.83095	-220.23897999999994	374.63153	1408.42048	-206.95416999999995	714.78033	1125.39635	197.77033	619.70732	1122.97043	166.75320000000002	565.75946	1176.28294	133.71446000000006	680.93295	1081.49873	-317.1603	591.75147	1088.94978	-272.39628	551.55049	1145.43908	-227.28569999999996	25.35665000000001	1221.62456	163.8651900000001	270.43244	892.68121	117.42613000000004	272.85836	897.99513	37.65954000000004	305.83934	924.44922	77.86052000000004	4.9095999999999895	1237.7396	-170.68087999999992	335.35471	998.72861	-234.79450999999997	352.79824	991.33533	-157.10726999999997	368.04689	1032.92255	-194.99784999999997	323.34063	855.88807	74.45267000000004	198.05913	453.12741	96.17044000000001	198.29017	455.03349	29.342090000000017	359.44064	938.08059	-192.28312999999997	28.591209999999993	689.77023	-106.91380999999996	48.1141	694.67984	-43.14673999999996	134.58086	385.25938	37.024180000000015	298.79262	346.2136	-0.6353599999999971	291.51485	323.51391	77.51396	317.39134	328.25023	37.4285	173.28008	374.05393	37.37074000000001	397.10018	303.2979	37.60178	-35.34914	655.98062	-23.046249999999958	101.13781	550.45305	-34.19393999999997	59.897149999999996	535.08888	-102.92836999999997	97.0946	527.4068	-73.75954999999998	-7.046720000000001	629.58429	-34.13617999999997	154.91239	471.14853	-95.88163999999999	
706	11.75	0.0	1249.98473	7.653948992887842E-14	100.09813000000001	1334.83421	128.05398000000008	78.32259999999998	1329.46253	-145.49750999999992	69.94739	1411.01968	104.94997000000008	51.984019999999994	1406.62992	-120.89173999999991	-63.76706999999999	1208.16647	62.72739000000008	-72.77763	1205.91383	-50.193459999999924	-60.93683	1286.77787	4.158720000000082	-0.8664000000000001	1376.36367	-2.5414399999999158	66.36627	1475.53763	-11.494249999999912	129.20918	1565.41223	-20.38928999999991	397.38898	1602.37865	-46.55457999999992	275.05325	1706.3467	-40.085459999999905	200.54281	1647.37371	-30.439529999999912	299.08142	1517.64469	-33.44305999999993	320.56815	1740.42511	-44.706259999999915	565.35514	1847.28116	-91.37635999999992	501.53031	1786.28657	-3.0035199999999214	469.53125	1786.74865	-143.82246999999992	452.60757	1832.09027	-65.78866999999991	334.43055	1735.68879	167.0997600000001	310.86446	1690.86701	-258.24507999999986	431.81396	1451.4517	154.91239000000004	412.63763	1445.50242	97.72996000000006	407.55475	1416.10256	-235.83418999999995	393.86562	1412.63696	-176.86119999999994	510.59863	1206.31815	133.31014000000005	560.44554	1226.53416	134.40758000000005	395.13634	1444.57826	127.99622000000005	503.14759	1177.95798	-219.02601999999993	551.72377	1201.11975	-220.35449999999994	373.88065	1408.76704	-207.87832999999995	714.08721	1125.04979	198.29017	619.0142	1122.62387	167.21528000000004	565.1241	1175.87862	134.06102000000007	680.23983	1081.72977	-317.04478	591.05835	1089.23858	-272.39628	550.79961	1145.72788	-227.34345999999996	26.16529000000001	1220.93144	163.6341500000001	256.57004	881.82232	115.52005000000004	258.12956	886.6164	35.695700000000045	292.72781	911.85754	75.26131000000004	3.1767999999999894	1237.91288	-170.73863999999992	344.01872	1015.13246	-238.37562999999997	363.02177	1009.24094	-160.91942999999998	375.55569	1051.23248	-199.32984999999996	308.95838	843.9895	71.91123000000005	180.6156	442.32628	95.88164000000002	180.21128	444.00132	29.05329000000002	369.54865	955.58188	-195.86424999999997	41.76049999999999	703.1128	-111.01476999999996	61.05235	708.36896	-47.189939999999964	114.82693	376.59537	36.27330000000001	277.71021	332.98655	-1.7905599999999966	269.85484	309.82478	76.12771	295.78909	314.15678	36.10002	153.17959	364.29249	36.50434000000001	374.74705	286.77853	35.98449999999999	-21.31345	667.7059	-27.14720999999996	117.25285	565.06634	-39.50785999999997	76.12771	549.41337	-108.30004999999997	113.55621	542.25113	-79.24675999999997	7.508799999999997	642.00269	-38.525939999999956	172.35592	487.3791	-101.94644999999998	
